<svg width="35" height="32" fill="none" xmlns="http://www.w3.org/2000/svg"><path d="M17.482 0C11.338 0 6.213 4.53 6.213 10.313c0 2.2.722 4.162 2.109 6l8.296 11.849c.403.576 1.323.575 1.725 0l8.332-11.89c1.357-1.754 2.073-3.815 2.073-5.96C28.749 4.627 23.694 0 17.482 0Zm0 15c-2.824 0-5.122-2.103-5.122-4.688 0-2.584 2.298-4.687 5.122-4.687 2.823 0 5.121 2.103 5.121 4.688 0 2.584-2.298 4.687-5.122 4.687Z" fill="#CD06FF"/><path d="m25.49 21.544-5.159 7.38c-1.335 1.905-4.372 1.899-5.7.002l-5.167-7.38c-4.545.961-7.347 2.723-7.347 4.829C2.117 30.029 10.033 32 17.48 32c7.449 0 15.365-1.971 15.365-5.625 0-2.107-2.806-3.87-7.357-4.831Z" fill="#CD06FF"/></svg>