<svg width="36" height="24" fill="none" xmlns="http://www.w3.org/2000/svg"><path d="M1.1 1.947C5.9 5.667 14.32 12.21 16.793 14.251c.333.275.689.415 1.059.415.369 0 .725-.139 1.056-.413 2.477-2.042 10.897-8.586 15.695-12.306a.628.628 0 0 0 .103-.92A2.996 2.996 0 0 0 32.42 0H3.284C2.391 0 1.557.374.998 1.027a.628.628 0 0 0 .102.92Z" fill="#CD06FF"/><path d="M34.91 3.963a.779.779 0 0 0-.776.096c-5.321 4.129-12.113 9.421-14.25 11.184a3.15 3.15 0 0 1-4.066-.002C13.541 13.363 5.914 7.43 1.57 4.06a.783.783 0 0 0-.777-.096.666.666 0 0 0-.423.605v16.765C.37 22.804 1.677 24 3.284 24H32.42c1.607 0 2.913-1.196 2.913-2.667V4.568a.665.665 0 0 0-.422-.605Z" fill="#CD06FF"/></svg>