<svg width="35" height="32" fill="none" xmlns="http://www.w3.org/2000/svg"><path d="M29.136 14.665h2.913c0-6.84-5.642-11.998-13.125-11.998v2.666c5.917 0 10.212 3.924 10.212 9.332Z" fill="#CD06FF"/><path d="M18.938 10.667c3.064 0 4.37 1.196 4.37 4h2.914c0-4.3-2.586-6.667-7.284-6.667v2.667Zm4.985 7.257a1.54 1.54 0 0 0-1.025-.346c-.379.01-.737.155-1.001.403l-3.486 3.282c-.84-.147-2.526-.628-4.263-2.214-1.736-1.59-2.262-3.138-2.418-3.901l3.582-3.192c.272-.241.43-.57.442-.916a1.27 1.27 0 0 0-.38-.939L9.993 4.684a1.513 1.513 0 0 0-.987-.434 1.545 1.545 0 0 0-1.04.318l-3.16 2.481c-.252.232-.403.54-.423.866-.022.333-.438 8.229 6.251 14.354C16.47 27.61 23.78 28 25.793 28c.294 0 .474-.008.522-.01.357-.019.693-.157.944-.389l2.71-2.894c.247-.264.372-.605.349-.95a1.293 1.293 0 0 0-.474-.905l-5.92-4.928Z" fill="#CD06FF"/></svg>