<svg width="630" height="630" viewBox="0 0 630 630" fill="none" xmlns="http://www.w3.org/2000/svg">
<path d="M356.904 169.252C336.535 169.522 319.558 152.389 318.906 130.979C318.293 109.562 334.26 91.9994 354.611 91.7137L386.531 91.2934C406.867 91.0367 423.883 108.174 424.507 129.568C425.121 151.008 409.153 168.57 388.779 168.834L356.904 169.252Z" fill="#677780"/>
<path d="M360.775 314.289L254.507 63.4752C254.507 63.4752 271.266 -56.5689 456.419 247.987L360.763 314.278" fill="#96BFC9"/>
<path d="M264.566 54.934L266.18 57.9504C329.387 95.0707 405.878 210.919 444.68 274.56L473.547 256.971C259.737 -52.2 264.554 54.9233 264.554 54.9233" fill="#6C8E99"/>
<path d="M365.755 448.327C345.4 448.63 328.889 466.217 328.835 487.643C328.831 509.072 345.27 526.203 365.636 525.888L397.532 525.423C417.894 525.126 434.418 507.487 434.451 486.084C434.46 464.649 417.989 447.554 397.632 447.835L365.755 448.327Z" fill="#677780"/>
<path d="M365.626 303.256L266.364 556.959C266.364 556.959 286.48 676.464 463.04 366.879L365.599 303.286" fill="#96BFC9"/>
<path d="M276.627 565.199L278.149 562.138C340.297 523.276 413.518 405.325 450.564 340.643L479.892 357.424C274.786 672.471 276.627 565.199 276.627 565.199Z" fill="#6C8E99"/>
<path d="M123.141 332.406L47.566 438.325C47.566 438.325 62.1057 487.915 195.957 358.378L123.157 332.388" fill="#96BFC9"/>
<path d="M55.265 441.775L56.4445 440.479C103.232 424.038 158.699 374.678 186.764 347.595L208.661 354.429C53.4023 486.363 55.265 441.775 55.265 441.775Z" fill="#6C8E99"/>
<path d="M122.175 301.179L43.6514 197.403C43.6514 197.403 56.7749 147.435 194.222 273.179L122.175 301.179Z" fill="#96BFC9"/>
<path d="M51.2308 193.819L52.4321 195.043C99.6533 210.198 156.457 257.976 185.308 284.265L206.999 276.815C48.1184 149.289 51.2308 193.819 51.2308 193.819Z" fill="#6C8E99"/>
<path d="M525.296 369.823C552.726 369.426 618.505 342.761 618.071 311.035C617.624 279.286 551.132 254.472 523.679 254.87L492.807 255.292C492.581 255.303 492.364 255.387 492.109 255.393C491.962 255.388 491.728 255.348 491.586 255.349L139.114 273.401C123.223 273.625 67.6565 292.471 68.2836 314.788L68.4799 321.512C69.1188 343.84 125.787 361.191 141.718 360.971L491.673 370.283C492.07 370.276 492.716 370.183 493.195 370.121C493.625 370.124 494.028 370.252 494.435 370.244L525.302 369.828" fill="#E8EBEC"/>
<path d="M617.367 303.87C608.166 275.64 549.656 254.502 524.314 254.874L493.458 255.29C493.221 255.301 492.998 255.379 492.744 255.386C492.596 255.381 492.345 255.348 492.209 255.331L139.795 273.437C123.898 273.644 68.2842 292.447 68.9467 314.796L69.1484 321.515C69.2707 325.575 71.2713 329.474 74.512 333.127C192.496 311.854 494.709 263.731 617.401 303.868" fill="#C0C5C8"/>
<path d="M24.3355 325.115C19.4228 325.176 2.08306 322.772 1.96492 319.527L1.94629 318.525C1.87441 315.301 19.0356 312.446 23.9365 312.375L138.86 292.621C143.75 292.561 164.349 313.155 164.451 316.407L164.468 317.374C164.575 320.631 144.708 341.751 139.819 341.833L24.3414 325.121" fill="#6C8E99"/>
<path d="M541.867 272.099C541.867 272.099 594.87 310.921 544.231 352.256C544.231 352.256 567.872 312.815 541.867 272.099Z" fill="#6C8E99"/>
</svg>
