<svg width="120" height="66" fill="#" xmlns="http://www.w3.org/2000/svg"><path d="M39.655 40.036V32.59h17.09v15.259c-3.271 2.23-6.168 3.751-8.691 4.565-2.507.798-5.485 1.196-8.936 1.196-4.248 0-7.715-.724-10.4-2.172-2.67-1.45-4.745-3.606-6.226-6.47-1.465-2.865-2.197-6.153-2.197-9.864 0-3.906.806-7.3 2.417-10.18 1.611-2.897 3.971-5.095 7.08-6.592 2.425-1.156 5.688-1.733 9.79-1.733 3.955 0 6.91.358 8.862 1.074 1.97.716 3.597 1.83 4.883 3.345 1.302 1.497 2.279 3.401 2.93 5.712l-10.67 1.905c-.439-1.351-1.187-2.385-2.245-3.1-1.042-.717-2.377-1.075-4.004-1.075-2.425 0-4.362.846-5.81 2.539-1.433 1.677-2.15 4.338-2.15 7.983 0 3.874.725 6.641 2.174 8.301 1.465 1.66 3.5 2.49 6.103 2.49 1.237 0 2.417-.179 3.54-.537 1.123-.358 2.41-.968 3.858-1.83v-3.37h-7.398ZM61.92 35.129c0-5.843 1.628-10.392 4.884-13.648 3.255-3.255 7.788-4.882 13.598-4.882 5.957 0 10.547 1.603 13.77 4.81 3.222 3.19 4.834 7.665 4.834 13.427 0 4.183-.708 7.617-2.124 10.303-1.4 2.669-3.434 4.752-6.104 6.25-2.653 1.48-5.965 2.221-9.936 2.221-4.037 0-7.381-.643-10.034-1.928-2.637-1.286-4.777-3.32-6.421-6.104-1.644-2.783-2.466-6.266-2.466-10.45Zm11.06.049c0 3.613.668 6.209 2.002 7.788 1.351 1.579 3.182 2.368 5.494 2.368 2.376 0 4.215-.773 5.517-2.32 1.302-1.546 1.953-4.32 1.953-8.325 0-3.369-.683-5.826-2.05-7.373-1.351-1.562-3.19-2.343-5.518-2.343-2.23 0-4.02.789-5.371 2.368-1.351 1.579-2.026 4.19-2.026 7.837Z" fill="#000"/><path d="M0 34h1v32H0V34Z" fill="#CD06FF"/><path d="M0 66v-1h51v1H0ZM120 32h-1V0h1v32Z" fill="#CD06FF"/><path d="M120 0v1H69V0h51Z" fill="#CD06FF"/></svg>