<svg width="48" height="48" viewBox="0 0 48 48" fill="none" xmlns="http://www.w3.org/2000/svg">
<path d="M47.9998 24C47.9998 30.3652 45.4713 36.4697 40.9704 40.9706C36.4695 45.4714 30.365 48 23.9998 48C17.6347 48 11.5302 45.4714 7.02928 40.9706C2.52841 36.4697 -0.000152588 30.3652 -0.000152588 24C-0.000152588 17.6348 2.52841 11.5303 7.02928 7.02944C11.5302 2.52856 17.6347 0 23.9998 0C30.365 0 36.4695 2.52856 40.9704 7.02944C45.4713 11.5303 47.9998 17.6348 47.9998 24V24ZM24.8608 17.718C22.5268 18.69 17.8588 20.7 10.8628 23.748C9.72885 24.198 9.13185 24.642 9.07785 25.074C8.98785 25.803 9.90285 26.091 11.1478 26.484L11.6728 26.649C12.8968 27.048 14.5468 27.513 15.4018 27.531C16.1818 27.549 17.0488 27.231 18.0058 26.571C24.5428 22.158 27.9178 19.929 28.1278 19.881C28.2778 19.845 28.4878 19.803 28.6258 19.929C28.7668 20.052 28.7518 20.289 28.7368 20.352C28.6468 20.739 25.0558 24.075 23.1988 25.803C22.6198 26.343 22.2088 26.724 22.1248 26.811C21.9399 27 21.7519 27.1861 21.5608 27.369C20.4208 28.467 19.5688 29.289 21.6058 30.633C22.5868 31.281 23.3728 31.812 24.1558 32.346C25.0078 32.928 25.8598 33.507 26.9638 34.233C27.2428 34.413 27.5128 34.608 27.7738 34.794C28.7668 35.502 29.6638 36.138 30.7648 36.036C31.4068 35.976 32.0698 35.376 32.4058 33.576C33.2008 29.325 34.7638 20.118 35.1238 16.323C35.1458 16.0075 35.1327 15.6906 35.0848 15.378C35.0566 15.1258 34.9345 14.8934 34.7428 14.727C34.4699 14.5386 34.1445 14.4409 33.8128 14.448C32.9128 14.463 31.5238 14.946 24.8608 17.718V17.718Z" fill="white"/>
</svg>
