<svg width="36" height="24" viewBox="0 0 36 24" fill="none" xmlns="http://www.w3.org/2000/svg">
<path d="M1.10021 1.94725C5.89873 5.66669 14.3187 12.2103 16.7934 14.2506C17.1256 14.526 17.4819 14.666 17.8518 14.666C18.221 14.666 18.5767 14.5273 18.9082 14.2533C21.385 12.2109 29.8049 5.66669 34.6035 1.94725C34.9023 1.71612 34.9478 1.30987 34.706 1.02731C34.1468 0.374375 33.3132 0 32.4197 0H3.28396C2.39056 0 1.55684 0.374375 0.997775 1.02738C0.755902 1.30988 0.80145 1.71612 1.10021 1.94725Z" fill="#CD06FF"/>
<path d="M34.9108 3.96279C34.6526 3.85279 34.3489 3.89116 34.1341 4.05916C28.8126 8.18804 22.0209 13.4804 19.8841 15.2427C18.6847 16.2336 17.0202 16.2336 15.8181 15.2414C13.5405 13.3632 5.91363 7.42891 1.56962 4.0591C1.35335 3.8911 1.04893 3.85404 0.792853 3.96273C0.535411 4.07216 0.370361 4.30785 0.370361 4.5676V21.3332C0.370361 22.804 1.67703 23.9999 3.28396 23.9999H32.4198C34.0267 23.9999 35.3333 22.804 35.3333 21.3332V4.5676C35.3333 4.30785 35.1683 4.07154 34.9108 3.96279Z" fill="#CD06FF"/>
</svg>
