<svg width="50" height="50" viewBox="0 0 50 50" fill="none" xmlns="http://www.w3.org/2000/svg">
<path d="M32.4999 25C32.4999 26.9891 31.7097 28.8968 30.3032 30.3033C28.8967 31.7098 26.989 32.5 24.9999 32.5C23.0108 32.5 21.1031 31.7098 19.6966 30.3033C18.2901 28.8968 17.4999 26.9891 17.4999 25C17.4999 24.5725 17.5449 24.155 17.6224 23.75H14.9999V33.7425C14.9999 34.4375 15.5624 35 16.2574 35H33.7449C34.078 34.9993 34.3972 34.8666 34.6325 34.6308C34.8677 34.395 34.9999 34.0756 34.9999 33.7425V23.75H32.3774C32.4549 24.155 32.4999 24.5725 32.4999 25ZM24.9999 30C25.6567 29.9998 26.307 29.8703 26.9137 29.6188C27.5204 29.3673 28.0716 28.9988 28.5359 28.5343C29.0002 28.0698 29.3685 27.5183 29.6197 26.9115C29.8708 26.3046 30 25.6543 29.9999 24.9975C29.9997 24.3407 29.8702 23.6904 29.6187 23.0837C29.3672 22.477 28.9987 21.9257 28.5342 21.4614C28.0696 20.9972 27.5182 20.6289 26.9114 20.3777C26.3045 20.1265 25.6542 19.9973 24.9974 19.9975C23.671 19.9978 22.399 20.5251 21.4613 21.4632C20.5236 22.4014 19.997 23.6736 19.9974 25C19.9977 26.3264 20.5249 27.5984 21.4631 28.5361C22.4012 29.4737 23.6735 30.0003 24.9999 30ZM30.9999 19.75H33.9974C34.1965 19.75 34.3875 19.6711 34.5286 19.5305C34.6696 19.3899 34.7492 19.1991 34.7499 19V16.0025C34.7499 15.8029 34.6706 15.6115 34.5295 15.4704C34.3884 15.3293 34.197 15.25 33.9974 15.25H30.9999C30.8003 15.25 30.6089 15.3293 30.4678 15.4704C30.3267 15.6115 30.2474 15.8029 30.2474 16.0025V19C30.2499 19.4125 30.5874 19.75 30.9999 19.75ZM24.9999 1C18.6347 1 12.5302 3.52856 8.02932 8.02944C3.52844 12.5303 0.999878 18.6348 0.999878 25C0.999878 31.3652 3.52844 37.4697 8.02932 41.9706C12.5302 46.4714 18.6347 49 24.9999 49C28.1516 49 31.2725 48.3792 34.1843 47.1731C37.0961 45.967 39.7418 44.1992 41.9704 41.9706C44.1991 39.742 45.9669 37.0962 47.173 34.1844C48.3791 31.2726 48.9999 28.1517 48.9999 25C48.9999 21.8483 48.3791 18.7274 47.173 15.8156C45.9669 12.9038 44.1991 10.258 41.9704 8.02944C39.7418 5.80083 37.0961 4.033 34.1843 2.82689C31.2725 1.62078 28.1516 1 24.9999 1ZM37.4999 34.7225C37.4999 36.25 36.2499 37.5 34.7224 37.5H15.2774C13.7499 37.5 12.4999 36.25 12.4999 34.7225V15.2775C12.4999 13.75 13.7499 12.5 15.2774 12.5H34.7224C36.2499 12.5 37.4999 13.75 37.4999 15.2775V34.7225Z" fill="white"/>
</svg>
